<svg width="1217" height="181" viewBox="0 0 1217 181" fill="none" xmlns="http://www.w3.org/2000/svg">
<path fill-rule="evenodd" clip-rule="evenodd" d="M1151.22 51.787C1186.7 51.787 1216.59 77.302 1216.59 115.453C1216.59 153.604 1186.7 179.119 1151.22 179.119C1115.01 179.119 1085.12 153.604 1085.12 115.453C1085.12 77.302 1115.01 51.787 1151.22 51.787ZM1151.22 151.66C1167.99 151.66 1185.48 138.052 1185.48 115.453C1185.48 92.854 1167.99 79.246 1151.22 79.246C1133.72 79.246 1116.23 92.854 1116.23 115.453C1116.23 138.052 1133.72 151.66 1151.22 151.66Z" fill="white"/>
<path d="M1085.65 53.974C1082.74 53.002 1080.31 53.002 1077.15 53.002C1057.46 53.002 1043.37 62.722 1033.65 76.816V54.703H1001.57V175.96H1033.65V136.837C1033.65 103.06 1047.26 84.835 1076.9 84.835H1083.95L1085.65 53.974Z" fill="white"/>
<path fill-rule="evenodd" clip-rule="evenodd" d="M929.428 51.058C961.504 51.058 982.645 67.339 982.645 96.742V175.96H952.027V165.997C943.765 174.016 931.615 179.605 915.091 179.605C887.389 179.605 868.921 163.81 868.921 139.996C868.921 116.668 886.417 101.116 917.035 101.116H952.027V99.172C952.027 87.022 943.765 78.76 931.372 78.76C916.792 78.76 908.53 84.349 906.1 96.499L875.482 90.424C880.099 66.853 901.726 51.058 929.428 51.058ZM920.194 154.09C937.204 154.09 952.027 142.426 952.027 126.874V125.416H916.549C906.343 125.416 899.539 131.005 899.539 139.267C899.539 148.258 907.801 154.09 920.194 154.09Z" fill="white"/>
<path d="M824.505 175.96L875.049 54.46H840.543L807.495 136.837L774.447 54.46H739.941L790.485 175.96H824.505Z" fill="white"/>
<path d="M726.923 179.605C702.623 179.605 686.585 163.567 686.585 139.51V1H718.661V137.566C718.661 144.613 724.25 149.473 732.512 149.473C736.4 149.473 742.475 148.015 747.578 146.071L753.167 173.044L752.725 173.249C746.056 176.349 739.048 179.605 726.923 179.605Z" fill="white"/>
<path fill-rule="evenodd" clip-rule="evenodd" d="M670.086 96.742C670.086 67.339 648.945 51.058 616.869 51.058C589.167 51.058 567.54 66.853 562.923 90.424L593.541 96.499C595.971 84.349 604.233 78.76 618.813 78.76C631.206 78.76 639.468 87.022 639.468 99.172V101.116H604.476C573.858 101.116 556.362 116.668 556.362 139.996C556.362 163.81 574.83 179.605 602.532 179.605C619.056 179.605 631.206 174.016 639.468 165.997V175.96H670.086V96.742ZM639.468 126.874C639.468 142.426 624.645 154.09 607.635 154.09C595.242 154.09 586.98 148.258 586.98 139.267C586.98 131.005 593.784 125.416 603.99 125.416H639.468V126.874Z" fill="white"/>
<path d="M112.196 0C123.374 0 131.636 8.991 131.636 19.197C131.636 29.889 123.374 37.908 112.196 37.908C100.775 37.908 92.7559 29.889 92.7559 19.197C92.7559 8.991 100.775 0 112.196 0Z" fill="white"/>
<path d="M242.476 171.315L233.242 144.585C226.924 147.987 218.662 150.417 213.073 150.417C202.381 150.417 195.334 144.099 195.334 129.519V81.648H258.901V131.949C258.901 165.24 277.855 180.306 306.529 180.306C316.735 180.306 325.483 178.119 338.119 171.315L328.885 144.585C322.568 147.987 314.305 150.417 308.716 150.417C298.024 150.417 290.977 144.099 290.977 129.519V81.648H330.586V55.404H290.977V18.711H258.901V55.404H195.334V18.711H163.258V55.404H137.257V81.648H163.258V131.949C163.258 165.24 182.212 180.306 210.886 180.306C221.092 180.306 229.84 178.119 242.476 171.315Z" fill="white"/>
<path fill-rule="evenodd" clip-rule="evenodd" d="M453.629 92.46L448.162 82.99C428.641 51.61 391.926 43.9068 363.937 60.0663C333.843 77.4408 322.764 114.141 341.84 147.181C360.915 180.221 398.117 188.766 427.79 171.634C450.728 158.391 463.382 137.055 460.006 109.823L432.136 118.899C431.972 136.11 422.267 143.116 414.06 147.854C401.223 155.266 385.144 152.202 373.661 138.63L453.629 92.46ZM363.203 118.573C359.037 103.581 367.387 90.3424 377.909 84.2673C389.063 77.8279 402.566 77.8883 413.92 89.2912L363.203 118.573Z" fill="white"/>
<path d="M556.362 54.675C553.446 53.703 551.016 53.703 547.857 53.703C528.174 53.703 514.08 63.423 504.36 77.517V55.404H472.284V176.661H504.36V137.538C504.36 103.761 517.968 85.536 547.614 85.536H554.661L556.362 54.675Z" fill="white"/>
<path d="M84.078 54.675C81.162 53.703 78.732 53.703 75.573 53.703C55.89 53.703 41.796 63.423 32.076 77.517V55.404H0V176.661H32.076V137.538C32.076 103.761 45.684 85.536 75.33 85.536H82.377L84.078 54.675Z" fill="white"/>
<path d="M128.234 176.661H96.1578V55.404H128.234V176.661Z" fill="white"/>
</svg>
