<svg width="661" height="314" viewBox="0 0 661 314" fill="none" xmlns="http://www.w3.org/2000/svg">
<path fill-rule="evenodd" clip-rule="evenodd" d="M594.858 185.787C630.336 185.787 660.225 211.302 660.225 249.453C660.225 287.604 630.336 313.119 594.858 313.119C558.651 313.119 528.762 287.604 528.762 249.453C528.762 211.302 558.651 185.787 594.858 185.787ZM594.858 285.66C611.625 285.66 629.121 272.052 629.121 249.453C629.121 226.854 611.625 213.246 594.858 213.246C577.362 213.246 559.866 226.854 559.866 249.453C559.866 272.052 577.362 285.66 594.858 285.66Z" fill="white"/>
<path d="M529.29 187.974C526.374 187.002 523.944 187.002 520.785 187.002C501.102 187.002 487.008 196.722 477.288 210.816V188.703H445.212V309.96H477.288V270.837C477.288 237.06 490.896 218.835 520.542 218.835H527.589L529.29 187.974Z" fill="white"/>
<path fill-rule="evenodd" clip-rule="evenodd" d="M373.066 185.058C405.142 185.058 426.283 201.339 426.283 230.742V309.96H395.665V299.997C387.403 308.016 375.253 313.605 358.729 313.605C331.027 313.605 312.559 297.81 312.559 273.996C312.559 250.668 330.055 235.116 360.673 235.116H395.665V233.172C395.665 221.022 387.403 212.76 375.01 212.76C360.43 212.76 352.168 218.349 349.738 230.499L319.12 224.424C323.737 200.853 345.364 185.058 373.066 185.058ZM363.832 288.09C380.842 288.09 395.665 276.426 395.665 260.874V259.416H360.187C349.981 259.416 343.177 265.005 343.177 273.267C343.177 282.258 351.439 288.09 363.832 288.09Z" fill="white"/>
<path d="M268.143 309.96L318.687 188.46H284.181L251.133 270.837L218.085 188.46H183.579L234.123 309.96H268.143Z" fill="white"/>
<path d="M170.561 313.605C146.261 313.605 130.223 297.567 130.223 273.51V135H162.299V271.566C162.299 278.613 167.888 283.473 176.15 283.473C180.038 283.473 186.113 282.015 191.216 280.071L196.805 307.044L196.364 307.249C189.694 310.349 182.686 313.605 170.561 313.605Z" fill="white"/>
<path fill-rule="evenodd" clip-rule="evenodd" d="M113.724 230.742C113.724 201.339 92.583 185.058 60.507 185.058C32.805 185.058 11.178 200.853 6.561 224.424L37.179 230.499C39.609 218.349 47.871 212.76 62.451 212.76C74.844 212.76 83.106 221.022 83.106 233.172V235.116H48.114C17.496 235.116 0 250.668 0 273.996C0 297.81 18.468 313.605 46.17 313.605C62.694 313.605 74.844 308.016 83.106 299.997V309.96H113.724V230.742ZM83.106 260.874C83.106 276.426 68.283 288.09 51.273 288.09C38.88 288.09 30.618 282.258 30.618 273.267C30.618 265.005 37.422 259.416 47.628 259.416H83.106V260.874Z" fill="white"/>
<path d="M199.834 0C211.012 0 219.274 8.991 219.274 19.197C219.274 29.889 211.012 37.908 199.834 37.908C188.413 37.908 180.394 29.889 180.394 19.197C180.394 8.991 188.413 0 199.834 0Z" fill="white"/>
<path d="M330.114 171.315L320.88 144.585C314.562 147.987 306.3 150.417 300.711 150.417C290.019 150.417 282.972 144.099 282.972 129.519V81.648H346.54V131.949C346.54 165.24 365.493 180.306 394.167 180.306C404.374 180.306 413.122 178.119 425.758 171.315L416.524 144.585C410.206 147.987 401.943 150.417 396.354 150.417C385.662 150.417 378.616 144.099 378.616 129.519V81.648H418.225V55.404H378.616V18.711H346.54V55.404H282.972V18.711H250.896V55.404H224.895V81.648H250.896V131.949C250.896 165.24 269.85 180.306 298.524 180.306C308.73 180.306 317.478 178.119 330.114 171.315Z" fill="white"/>
<path fill-rule="evenodd" clip-rule="evenodd" d="M541.267 92.46L535.8 82.99C516.28 51.61 479.564 43.9068 451.575 60.0663C421.482 77.4408 410.403 114.141 429.478 147.181C448.553 180.221 485.755 188.766 515.428 171.634C538.366 158.391 551.021 137.055 547.644 109.823L519.774 118.899C519.61 136.11 509.906 143.116 501.698 147.854C488.861 155.266 472.782 152.202 461.299 138.63L541.267 92.46ZM450.841 118.573C446.675 103.581 455.025 90.3424 465.548 84.2673C476.701 77.8279 490.204 77.8883 501.558 89.2912L450.841 118.573Z" fill="white"/>
<path d="M644 54.675C641.084 53.703 638.654 53.703 635.495 53.703C615.812 53.703 601.718 63.423 591.998 77.517V55.404H559.922V176.661H591.998V137.538C591.998 103.761 605.606 85.536 635.252 85.536H642.299L644 54.675Z" fill="white"/>
<path d="M166.216 54.675C163.3 53.703 160.87 53.703 157.711 53.703C138.028 53.703 123.934 63.423 114.214 77.517V55.404H82.1382V176.661H114.214V137.538C114.214 103.761 127.822 85.536 157.468 85.536H164.515L166.216 54.675Z" fill="white"/>
<path d="M215.872 176.661H183.796V55.404H215.872V176.661Z" fill="white"/>
</svg>
